<svg width="88" height="88" xmlns="http://www.w3.org/2000/svg"><g fill="none" fill-rule="evenodd" stroke-linejoin="round" stroke="#000" stroke-width=".75"><path d="M62.016 65c.526 0 .96-.422.984-.96l-.86-33.986s-1.402-.324-1.402-1.304c0-.572.522-.94.957-1.148a1 1 0 00.578-.9v-3.695A.997.997 0 0061.287 22H36.81a.997.997 0 00-.985 1.007v3.695a1 1 0 00.578.9c.436.207.958.576.958 1.148 0 .98-1.403 1.304-1.403 1.304L35 64.04c.025.538.458.96.984.96h26.032z" fill="#FFF"/><path d="M56.972 59H42.028c-.574 0-1.036-.455-1.028-1.012l.381-23.006c.008-.545.466-.982 1.027-.982h14.183c.562 0 1.02.437 1.028.982l.38 23.006c.01.557-.453 1.012-1.027 1.012z"/><path d="M42.012 28.182A1.263 1.263 0 0041.36 28c-.752 0-1.361.671-1.361 1.5s.609 1.5 1.36 1.5c.752 0 1.361-.671 1.361-1.5H60" stroke-linecap="round"/><path d="M50.792 65.07a1 1 0 001-.953l-.873-33.745s-1.424-.322-1.424-1.295c0-.568.53-.934.972-1.14a.993.993 0 00.586-.893v-3.669a1 1 0 00-1-1H25.212a1 1 0 00-1 1v3.67c0 .387.235.727.587.892.442.206.972.572.972 1.14 0 .973-1.424 1.295-1.424 1.295l-.972 33.745a1 1 0 001 .953h26.417z" fill="#FFF"/><path d="M44.902 59.093H30.364a1 1 0 01-1-1.015l.371-23.065a.998.998 0 011-.984H44.53a.999.999 0 011 .984l.371 23.066a1 1 0 01-1 1.014z"/><path d="M29.542 27.798a1.349 1.349 0 10.703 1.184h17.118" stroke-linecap="round"/></g></svg>