<svg width="88" height="88" xmlns="http://www.w3.org/2000/svg"><g fill="none" fill-rule="evenodd"><path opacity=".2" d="M0 0h88v88H0z"/><g stroke="#000" stroke-linejoin="round" stroke-width=".75"><path d="M57.792 65.07a1 1 0 001-.953l-.873-33.745s-1.424-.322-1.424-1.295c0-.568.53-.934.972-1.14a.993.993 0 00.586-.893v-3.669a1 1 0 00-1-1H32.212a1 1 0 00-1 1v3.67c0 .387.235.727.587.892.442.206.972.572.972 1.14 0 .973-1.424 1.295-1.424 1.295l-.972 33.745a1 1 0 001 .953h26.417z"/><path d="M51.902 59.093H37.364a1 1 0 01-1-1.015l.371-23.065a.998.998 0 011-.984H51.53a.999.999 0 011 .984l.371 23.066a1 1 0 01-1 1.014z"/><path d="M36.542 27.798a1.349 1.349 0 10.703 1.184h17.118" stroke-linecap="round"/></g></g></svg>